HIERARCHY
ROOT Hips
{
	OFFSET -0.001795 -0.223333 0.028219
	CHANNELS 6 Xposition Yposition Zposition Zrotation Yrotation Xrotation 
	JOINT LeftUpLeg
	{
		OFFSET 0.069520 -0.091406 -0.006815
		CHANNELS 3 Zrotation Yrotation Xrotation
		JOINT LeftLeg
		{
			OFFSET 0.034277 -0.375199 -0.004496
			CHANNELS 3 Zrotation Yrotation Xrotation
			JOINT LeftFoot
			{
				OFFSET -0.013596 -0.397961 -0.043693
				CHANNELS 3 Zrotation Yrotation Xrotation
				JOINT LeftToe
				{
					OFFSET 0.026358 -0.055791 0.119288
					CHANNELS 3 Zrotation Yrotation Xrotation
					End Site
					{
						OFFSET 0.000000 0.000000 0.000000
					}
				}
			}
		}
	}
	JOINT RightUpLeg
	{
		OFFSET -0.067670 -0.090522 -0.004320
		CHANNELS 3 Zrotation Yrotation Xrotation
		JOINT RightLeg
		{
			OFFSET -0.038290 -0.382569 -0.008850
			CHANNELS 3 Zrotation Yrotation Xrotation
			JOINT RightFoot
			{
				OFFSET 0.015774 -0.398415 -0.042312
				CHANNELS 3 Zrotation Yrotation Xrotation
				JOINT RightToe
				{
					OFFSET -0.025372 -0.048144 0.123348
					CHANNELS 3 Zrotation Yrotation Xrotation
					End Site
					{
						OFFSET 0.000000 0.000000 0.000000
					}
				}
			}
		}
	}
	JOINT Spine
	{
		OFFSET -0.002533 0.108963 -0.026696
		CHANNELS 3 Zrotation Yrotation Xrotation
		JOINT Spine1
		{
			OFFSET 0.005487 0.135180 0.001092
			CHANNELS 3 Zrotation Yrotation Xrotation
			JOINT Spine2
			{
				OFFSET 0.001457 0.052922 0.025425
				CHANNELS 3 Zrotation Yrotation Xrotation
				JOINT Neck
				{
					OFFSET -0.002778 0.213870 -0.042857
					CHANNELS 3 Zrotation Yrotation Xrotation
					JOINT Head
					{
						OFFSET 0.005152 0.064970 0.051349
						CHANNELS 3 Zrotation Yrotation Xrotation
						End Site
						{
							OFFSET 0.000000 0.000000 0.000000
						}
					}
				}
				JOINT LeftShoulder
				{
					OFFSET 0.078845 0.121749 -0.034090
					CHANNELS 3 Zrotation Yrotation Xrotation
					JOINT LeftArm
					{
						OFFSET 0.090977 0.030469 -0.008868
						CHANNELS 3 Zrotation Yrotation Xrotation
						JOINT LeftForeArm
						{
							OFFSET 0.259612 -0.012772 -0.027456
							CHANNELS 3 Zrotation Yrotation Xrotation
							JOINT LeftHand
							{
								OFFSET 0.249234 0.008986 -0.001171
								CHANNELS 3 Zrotation Yrotation Xrotation
								End Site
								{
									OFFSET 0.000000 0.000000 0.000000
								}
							}
						}
					}
				}
				JOINT RightShoulder
				{
					OFFSET -0.081759 0.118833 -0.038615
					CHANNELS 3 Zrotation Yrotation Xrotation
					JOINT RightArm
					{
						OFFSET -0.096012 0.032551 -0.009143
						CHANNELS 3 Zrotation Yrotation Xrotation
						JOINT RightForeArm
						{
							OFFSET -0.253742 -0.013329 -0.021401
							CHANNELS 3 Zrotation Yrotation Xrotation
							JOINT RightHand
							{
								OFFSET -0.255298 0.007772 -0.005559
								CHANNELS 3 Zrotation Yrotation Xrotation
								End Site
								{
									OFFSET 0.000000 0.000000 0.000000
								}
							}
						}
					}
				}
			}
		}
	}
}
MOTION
Frames: 6
Frame Time: 0.050000
0.000000 0.954072 0.000000 -0.736486 6.687082 0.775192 2.279696 -0.062035 -0.023104 0.430468 0.032933 -1.945918 -4.269115 -2.127883 10.915834 0.000000 0.000000 0.000000 -2.351574 0.298524 -3.344009 -1.796065 0.398629 3.749335 4.208273 5.192318 9.966781 0.000000 0.000000 0.000000 0.259401 -0.125609 2.868540 1.126429 -0.569832 0.400042 -0.956592 -2.232885 -0.300839 1.301290 -0.300913 -6.988223 0.000000 0.000000 0.000000 -23.692634 0.331808 -3.160068 -45.942790 -0.198200 -4.820876 -11.659951 -22.494609 3.040100 0.000000 0.000000 0.000000 21.353604 -2.079511 -2.969695 52.098131 -0.826987 -5.010110 3.476824 19.768657 1.194609 0.000000 0.000000 0.000000 
0.000115 0.953418 0.000302 -0.642095 6.832560 1.117330 2.057463 -0.060114 -0.061317 0.647886 0.037713 -2.517836 -4.325293 -2.226290 10.881130 0.000000 0.000000 0.000000 -3.125906 0.259603 -3.007855 -1.097698 0.266537 3.104131 4.670156 6.591404 9.125445 0.000000 0.000000 0.000000 0.083554 -0.116049 2.785231 0.399792 -0.224970 0.498513 -0.503561 -2.742621 -0.720693 0.611184 0.302642 -8.756065 0.000000 0.000000 0.000000 -23.611720 1.167356 -3.477078 -46.303345 0.411084 -5.093856 -11.739970 -23.568492 3.228400 0.000000 0.000000 0.000000 21.085468 -2.419893 -3.296411 52.737617 -1.691526 -5.366836 3.636910 21.580402 1.317315 0.000000 0.000000 0.000000 
0.000108 0.953152 0.000522 -0.394684 7.235883 1.330877 1.903851 -0.104101 -0.732861 0.491385 0.021774 -1.764893 -4.466581 -2.494928 10.748231 0.000000 0.000000 0.000000 -3.249585 0.272758 -3.243877 -1.144130 0.298453 3.723788 4.107003 5.975337 8.069133 0.000000 0.000000 0.000000 0.168218 -0.115051 2.698395 0.182290 -0.023434 -1.247129 -0.997178 -3.481862 0.912917 -0.015046 0.694166 -8.730352 0.000000 0.000000 0.000000 -23.207779 0.921804 -3.122225 -46.498014 0.148632 -5.189253 -11.527344 -22.834328 3.115246 0.000000 0.000000 0.000000 21.916700 -1.970565 -3.184748 52.056699 -1.819278 -5.485639 3.300481 21.776500 1.276089 0.000000 0.000000 0.000000 
0.000023 0.953235 0.000919 -0.503968 7.760807 1.487273 2.146907 -0.145669 -1.224029 0.352390 0.016614 -1.314448 -4.682852 -2.843482 10.680784 0.000000 0.000000 0.000000 -3.497671 0.282034 -3.485185 -0.834129 0.254620 3.841906 4.486764 6.617636 8.519728 0.000000 0.000000 0.000000 0.103973 -0.102899 2.461609 -0.351886 0.161399 -0.007079 -0.222218 -4.681683 -0.459924 -0.874532 1.190565 -8.438516 0.000000 0.000000 0.000000 -23.117519 1.905648 -3.381193 -46.872296 0.365082 -5.287370 -11.037541 -23.135376 3.101825 0.000000 0.000000 0.000000 21.168160 -1.703338 -3.304056 52.028402 -2.283450 -5.482865 4.012434 22.594823 1.387827 0.000000 0.000000 0.000000 
-0.000096 0.953472 0.001570 -0.292490 7.998311 1.455892 1.978846 -0.142866 -1.229718 0.294031 0.016578 -1.178300 -4.834615 -3.011806 10.796753 0.000000 0.000000 0.000000 -3.717867 0.252641 -3.167417 -0.607365 0.212823 3.661705 4.132768 6.009999 8.273542 0.000000 0.000000 0.000000 0.035122 -0.104651 2.561272 -0.261573 0.134266 -0.295403 -0.757927 -4.636484 -0.359241 -0.986127 1.245121 -7.762756 0.000000 0.000000 0.000000 -23.096397 1.422381 -3.188166 -46.477587 0.484156 -5.267349 -11.374323 -22.939938 3.127629 0.000000 0.000000 0.000000 21.081583 -2.048461 -3.395702 51.863457 -2.483443 -5.572705 4.879349 22.963945 1.587185 0.000000 0.000000 0.000000 
-0.000227 0.953360 0.002524 -0.344503 8.356191 1.395793 1.912083 -0.146876 -1.297895 0.585020 -0.017389 -0.932314 -4.960394 -3.262971 10.657442 0.000000 0.000000 0.000000 -3.634613 0.238680 -2.981131 -0.502570 0.187981 3.429255 3.948013 5.494607 8.609542 0.000000 0.000000 0.000000 -0.000866 -0.096320 2.394062 -0.370077 0.162961 0.118694 -0.676845 -5.007720 -0.587255 -1.379807 1.486747 -7.466109 0.000000 0.000000 0.000000 -23.488591 1.822489 -3.410656 -46.028217 0.326071 -5.155537 -10.811051 -22.692723 2.988258 0.000000 0.000000 0.000000 20.686155 -1.952668 -3.355669 51.863748 -2.470670 -5.537419 4.853929 23.304694 1.594104 0.000000 0.000000 0.000000 
